<mxfile host="65bd71144e">
    <diagram name="Page-1" id="Lo8HSTnLHUTpEW-vd8Br">
        <mxGraphModel dx="1078" dy="227" grid="1" gridSize="10" guides="1" tooltips="1" connect="1" arrows="1" fold="1" page="1" pageScale="1" pageWidth="827" pageHeight="1169" math="0" shadow="0">
            <root>
                <mxCell id="0"/>
                <mxCell id="1" parent="0"/>
                <mxCell id="Y3UnYj8FbFtQByEBO_pm-42" value="" style="rounded=1;whiteSpace=wrap;html=1;rotation=90;strokeColor=#000000;fontFamily=Comic Sans MS;fillColor=none;strokeWidth=2;" parent="1" vertex="1">
                    <mxGeometry x="305.05" y="308.11" width="408.03" height="334.13" as="geometry"/>
                </mxCell>
                <mxCell id="Y3UnYj8FbFtQByEBO_pm-232" value="" style="rounded=1;whiteSpace=wrap;html=1;rotation=90;strokeColor=#000000;fontFamily=Comic Sans MS;fillColor=none;strokeWidth=2;" parent="1" vertex="1">
                    <mxGeometry x="727.74" y="309.93" width="408.03" height="334.13" as="geometry"/>
                </mxCell>
                <mxCell id="Y3UnYj8FbFtQByEBO_pm-5" value="Business Engineering and services" style="rounded=1;whiteSpace=wrap;html=1;align=center;fontFamily=Comic Sans MS;fontSize=15;fillColor=none;strokeWidth=2;" parent="1" vertex="1">
                    <mxGeometry x="5" y="407" width="250" height="140" as="geometry"/>
                </mxCell>
                <mxCell id="Y3UnYj8FbFtQByEBO_pm-6" value="Text data" style="text;html=1;align=center;verticalAlign=middle;resizable=0;points=[];autosize=1;strokeColor=none;fillColor=none;fontFamily=Comic Sans MS;fontSize=18;fontStyle=1" parent="1" vertex="1">
                    <mxGeometry x="75" y="210" width="110" height="40" as="geometry"/>
                </mxCell>
                <mxCell id="Y3UnYj8FbFtQByEBO_pm-32" value="&lt;font&gt;BUSINESS&lt;/font&gt;" style="rounded=0;whiteSpace=wrap;html=1;fillColor=#f8cecc;strokeColor=#b85450;fontFamily=Comic Sans MS;fontColor=#000000;" parent="1" vertex="1">
                    <mxGeometry x="536" y="559.5" width="90" height="20" as="geometry"/>
                </mxCell>
                <mxCell id="Y3UnYj8FbFtQByEBO_pm-33" value="&lt;font color=&quot;#000000&quot;&gt;ENGINEERING&lt;/font&gt;" style="rounded=0;whiteSpace=wrap;html=1;fillColor=#f8cecc;strokeColor=#b85450;fontFamily=Comic Sans MS;fontColor=#000000;" parent="1" vertex="1">
                    <mxGeometry x="536" y="584.5" width="90" height="20" as="geometry"/>
                </mxCell>
                <mxCell id="Y3UnYj8FbFtQByEBO_pm-35" value="&lt;div&gt;AND&lt;/div&gt;" style="rounded=0;whiteSpace=wrap;html=1;fillColor=#f8cecc;strokeColor=#b85450;fontFamily=Comic Sans MS;fontColor=#000000;" parent="1" vertex="1">
                    <mxGeometry x="556" y="609.5" width="45" height="20" as="geometry"/>
                </mxCell>
                <mxCell id="Y3UnYj8FbFtQByEBO_pm-36" value="&lt;font color=&quot;#000000&quot;&gt;SERVICES&lt;/font&gt;" style="rounded=0;whiteSpace=wrap;html=1;fillColor=#f8cecc;strokeColor=#b85450;fontFamily=Comic Sans MS;fontColor=#000000;" parent="1" vertex="1">
                    <mxGeometry x="536" y="636.5" width="90" height="20" as="geometry"/>
                </mxCell>
                <mxCell id="Y3UnYj8FbFtQByEBO_pm-39" value="n-gram of characters" style="text;html=1;align=center;verticalAlign=middle;resizable=0;points=[];autosize=1;strokeColor=none;fillColor=none;fontFamily=Comic Sans MS;fontSize=15;" parent="1" vertex="1">
                    <mxGeometry x="335" y="320" width="170" height="30" as="geometry"/>
                </mxCell>
                <mxCell id="Y3UnYj8FbFtQByEBO_pm-40" value="n-gram of words" style="text;html=1;align=center;verticalAlign=middle;resizable=0;points=[];autosize=1;strokeColor=none;fillColor=none;fontFamily=Comic Sans MS;fontSize=15;" parent="1" vertex="1">
                    <mxGeometry x="350" y="453.75" width="140" height="30" as="geometry"/>
                </mxCell>
                <mxCell id="Y3UnYj8FbFtQByEBO_pm-41" value="words" style="text;html=1;align=center;verticalAlign=middle;resizable=0;points=[];autosize=1;strokeColor=none;fillColor=none;fontFamily=Comic Sans MS;fontSize=15;" parent="1" vertex="1">
                    <mxGeometry x="390" y="593" width="60" height="30" as="geometry"/>
                </mxCell>
                <mxCell id="Y3UnYj8FbFtQByEBO_pm-47" value="" style="rounded=1;whiteSpace=wrap;html=1;rotation=90;strokeColor=#666666;fontFamily=Comic Sans MS;fillColor=none;fontColor=#333333;strokeWidth=2;" parent="1" vertex="1">
                    <mxGeometry x="1211.87" y="244.63" width="408.03" height="465" as="geometry"/>
                </mxCell>
                <mxCell id="Y3UnYj8FbFtQByEBO_pm-62" value="&lt;font color=&quot;#000000&quot;&gt;&lt;font color=&quot;#000000&quot;&gt;0.&lt;/font&gt;7&lt;/font&gt;" style="whiteSpace=wrap;html=1;fillColor=#dae8fc;strokeColor=#6c8ebf;aspect=fixed;fontFamily=Comic Sans MS;" parent="1" vertex="1">
                    <mxGeometry x="933.75" y="323" width="26" height="26" as="geometry"/>
                </mxCell>
                <mxCell id="Y3UnYj8FbFtQByEBO_pm-65" value="&lt;font color=&quot;#000000&quot;&gt;-0.&lt;/font&gt;&lt;font color=&quot;#000000&quot;&gt;8&lt;/font&gt;" style="whiteSpace=wrap;html=1;fillColor=#dae8fc;strokeColor=#6c8ebf;aspect=fixed;fontFamily=Comic Sans MS;" parent="1" vertex="1">
                    <mxGeometry x="803.75" y="323" width="26" height="26" as="geometry"/>
                </mxCell>
                <mxCell id="Y3UnYj8FbFtQByEBO_pm-68" value="&lt;font color=&quot;#000000&quot;&gt;0.&lt;/font&gt;&lt;font color=&quot;#000000&quot;&gt;2&lt;/font&gt;" style="whiteSpace=wrap;html=1;fillColor=#dae8fc;strokeColor=#6c8ebf;aspect=fixed;fontFamily=Comic Sans MS;" parent="1" vertex="1">
                    <mxGeometry x="1011.75" y="323" width="26" height="26" as="geometry"/>
                </mxCell>
                <mxCell id="Y3UnYj8FbFtQByEBO_pm-69" value="&lt;font color=&quot;#000000&quot;&gt;-0.&lt;/font&gt;&lt;font color=&quot;#000000&quot;&gt;3&lt;/font&gt;" style="whiteSpace=wrap;html=1;fillColor=#dae8fc;strokeColor=#6c8ebf;aspect=fixed;fontFamily=Comic Sans MS;" parent="1" vertex="1">
                    <mxGeometry x="803.75" y="353" width="26" height="26" as="geometry"/>
                </mxCell>
                <mxCell id="Y3UnYj8FbFtQByEBO_pm-81" value="&lt;font color=&quot;#000000&quot;&gt;-0.&lt;/font&gt;&lt;font color=&quot;#000000&quot;&gt;6&lt;/font&gt;" style="whiteSpace=wrap;html=1;fillColor=#dae8fc;strokeColor=#6c8ebf;aspect=fixed;fontFamily=Comic Sans MS;" parent="1" vertex="1">
                    <mxGeometry x="829.75" y="323" width="26" height="26" as="geometry"/>
                </mxCell>
                <mxCell id="Y3UnYj8FbFtQByEBO_pm-82" value="&lt;font color=&quot;#000000&quot;&gt;0.&lt;/font&gt;&lt;font color=&quot;#000000&quot;&gt;8&lt;/font&gt;" style="whiteSpace=wrap;html=1;fillColor=#dae8fc;strokeColor=#6c8ebf;aspect=fixed;fontFamily=Comic Sans MS;" parent="1" vertex="1">
                    <mxGeometry x="985.75" y="323" width="26" height="26" as="geometry"/>
                </mxCell>
                <mxCell id="Y3UnYj8FbFtQByEBO_pm-84" value="&lt;font color=&quot;#000000&quot;&gt;0.&lt;/font&gt;&lt;font color=&quot;#000000&quot;&gt;2&lt;/font&gt;" style="whiteSpace=wrap;html=1;fillColor=#dae8fc;strokeColor=#6c8ebf;aspect=fixed;fontFamily=Comic Sans MS;" parent="1" vertex="1">
                    <mxGeometry x="855.75" y="323" width="26" height="26" as="geometry"/>
                </mxCell>
                <mxCell id="Y3UnYj8FbFtQByEBO_pm-86" value="&lt;font color=&quot;#000000&quot;&gt;0.&lt;/font&gt;&lt;font color=&quot;#000000&quot;&gt;3&lt;/font&gt;" style="whiteSpace=wrap;html=1;fillColor=#dae8fc;strokeColor=#6c8ebf;aspect=fixed;fontFamily=Comic Sans MS;" parent="1" vertex="1">
                    <mxGeometry x="1037.75" y="323" width="26" height="26" as="geometry"/>
                </mxCell>
                <mxCell id="Y3UnYj8FbFtQByEBO_pm-87" value="&lt;font color=&quot;#000000&quot;&gt;0.&lt;/font&gt;&lt;font color=&quot;#000000&quot;&gt;3&lt;/font&gt;" style="whiteSpace=wrap;html=1;fillColor=#dae8fc;strokeColor=#6c8ebf;aspect=fixed;fontFamily=Comic Sans MS;" parent="1" vertex="1">
                    <mxGeometry x="959.75" y="323" width="26" height="26" as="geometry"/>
                </mxCell>
                <mxCell id="Y3UnYj8FbFtQByEBO_pm-88" value="&lt;font color=&quot;#000000&quot;&gt;-0.&lt;/font&gt;&lt;font color=&quot;#000000&quot;&gt;3&lt;/font&gt;" style="whiteSpace=wrap;html=1;fillColor=#dae8fc;strokeColor=#6c8ebf;aspect=fixed;fontFamily=Comic Sans MS;" parent="1" vertex="1">
                    <mxGeometry x="907.75" y="323" width="26" height="26" as="geometry"/>
                </mxCell>
                <mxCell id="Y3UnYj8FbFtQByEBO_pm-89" value="&lt;font color=&quot;#000000&quot;&gt;0.&lt;/font&gt;&lt;font color=&quot;#000000&quot;&gt;3&lt;/font&gt;" style="whiteSpace=wrap;html=1;fillColor=#dae8fc;strokeColor=#6c8ebf;aspect=fixed;fontFamily=Comic Sans MS;" parent="1" vertex="1">
                    <mxGeometry x="881.75" y="323" width="26" height="26" as="geometry"/>
                </mxCell>
                <mxCell id="Y3UnYj8FbFtQByEBO_pm-90" value="&lt;font color=&quot;#000000&quot;&gt;0.&lt;/font&gt;&lt;font color=&quot;#000000&quot;&gt;5&lt;/font&gt;" style="whiteSpace=wrap;html=1;fillColor=#dae8fc;strokeColor=#6c8ebf;aspect=fixed;fontFamily=Comic Sans MS;" parent="1" vertex="1">
                    <mxGeometry x="855.75" y="353" width="26" height="26" as="geometry"/>
                </mxCell>
                <mxCell id="Y3UnYj8FbFtQByEBO_pm-91" value="&lt;font color=&quot;#000000&quot;&gt;&lt;font color=&quot;#000000&quot;&gt;-0.&lt;/font&gt;5&lt;/font&gt;" style="whiteSpace=wrap;html=1;fillColor=#dae8fc;strokeColor=#6c8ebf;aspect=fixed;fontFamily=Comic Sans MS;" parent="1" vertex="1">
                    <mxGeometry x="829.75" y="353" width="26" height="26" as="geometry"/>
                </mxCell>
                <mxCell id="Y3UnYj8FbFtQByEBO_pm-92" value="&lt;font color=&quot;#000000&quot;&gt;-0.&lt;/font&gt;&lt;font color=&quot;#000000&quot;&gt;8&lt;/font&gt;" style="whiteSpace=wrap;html=1;fillColor=#dae8fc;strokeColor=#6c8ebf;aspect=fixed;fontFamily=Comic Sans MS;" parent="1" vertex="1">
                    <mxGeometry x="881.75" y="353" width="26" height="26" as="geometry"/>
                </mxCell>
                <mxCell id="Y3UnYj8FbFtQByEBO_pm-93" value="&lt;font color=&quot;#000000&quot;&gt;0.&lt;/font&gt;&lt;font color=&quot;#000000&quot;&gt;4&lt;/font&gt;" style="whiteSpace=wrap;html=1;fillColor=#dae8fc;strokeColor=#6c8ebf;aspect=fixed;fontFamily=Comic Sans MS;" parent="1" vertex="1">
                    <mxGeometry x="907.75" y="353" width="26" height="26" as="geometry"/>
                </mxCell>
                <mxCell id="Y3UnYj8FbFtQByEBO_pm-94" value="&lt;font color=&quot;#000000&quot;&gt;0&lt;/font&gt;" style="whiteSpace=wrap;html=1;fillColor=#dae8fc;strokeColor=#6c8ebf;aspect=fixed;fontFamily=Comic Sans MS;" parent="1" vertex="1">
                    <mxGeometry x="933.75" y="353" width="26" height="26" as="geometry"/>
                </mxCell>
                <mxCell id="Y3UnYj8FbFtQByEBO_pm-95" value="&lt;font color=&quot;#000000&quot;&gt;0&lt;/font&gt;" style="whiteSpace=wrap;html=1;fillColor=#dae8fc;strokeColor=#6c8ebf;aspect=fixed;fontFamily=Comic Sans MS;" parent="1" vertex="1">
                    <mxGeometry x="959.75" y="353" width="26" height="26" as="geometry"/>
                </mxCell>
                <mxCell id="Y3UnYj8FbFtQByEBO_pm-96" value="&lt;font color=&quot;#000000&quot;&gt;0&lt;/font&gt;" style="whiteSpace=wrap;html=1;fillColor=#dae8fc;strokeColor=#6c8ebf;aspect=fixed;fontFamily=Comic Sans MS;" parent="1" vertex="1">
                    <mxGeometry x="985.75" y="353" width="26" height="26" as="geometry"/>
                </mxCell>
                <mxCell id="Y3UnYj8FbFtQByEBO_pm-97" value="&lt;font color=&quot;#000000&quot;&gt;0.&lt;/font&gt;&lt;font color=&quot;#000000&quot;&gt;9&lt;/font&gt;" style="whiteSpace=wrap;html=1;fillColor=#dae8fc;strokeColor=#6c8ebf;aspect=fixed;fontFamily=Comic Sans MS;" parent="1" vertex="1">
                    <mxGeometry x="1011.75" y="353" width="26" height="26" as="geometry"/>
                </mxCell>
                <mxCell id="Y3UnYj8FbFtQByEBO_pm-98" value="&lt;font color=&quot;#000000&quot;&gt;0.&lt;/font&gt;&lt;font color=&quot;#000000&quot;&gt;9&lt;/font&gt;" style="whiteSpace=wrap;html=1;fillColor=#dae8fc;strokeColor=#6c8ebf;aspect=fixed;fontFamily=Comic Sans MS;" parent="1" vertex="1">
                    <mxGeometry x="1037.75" y="353" width="26" height="26" as="geometry"/>
                </mxCell>
                <mxCell id="Y3UnYj8FbFtQByEBO_pm-122" value="Feature Extraction" style="text;html=1;align=center;verticalAlign=middle;resizable=0;points=[];autosize=1;strokeColor=none;fillColor=none;fontSize=18;fontStyle=1;fontFamily=Comic Sans MS;" parent="1" vertex="1">
                    <mxGeometry x="405" y="210" width="190" height="40" as="geometry"/>
                </mxCell>
                <mxCell id="Y3UnYj8FbFtQByEBO_pm-123" value="Embedding" style="text;html=1;align=center;verticalAlign=middle;resizable=0;points=[];autosize=1;strokeColor=none;fillColor=none;fontStyle=1;fontFamily=Comic Sans MS;fontSize=18;" parent="1" vertex="1">
                    <mxGeometry x="876.75" y="210" width="110" height="40" as="geometry"/>
                </mxCell>
                <mxCell id="Y3UnYj8FbFtQByEBO_pm-134" value="&lt;font color=&quot;#000000&quot;&gt;0.&lt;/font&gt;&lt;font color=&quot;#000000&quot;&gt;6&lt;/font&gt;" style="whiteSpace=wrap;html=1;aspect=fixed;fillColor=#dae8fc;strokeColor=#6c8ebf;fontFamily=Comic Sans MS;" parent="1" vertex="1">
                    <mxGeometry x="804.75" y="552" width="26" height="26" as="geometry"/>
                </mxCell>
                <mxCell id="Y3UnYj8FbFtQByEBO_pm-137" value="&lt;font color=&quot;#000000&quot;&gt;0.&lt;/font&gt;&lt;font color=&quot;#000000&quot;&gt;5&lt;/font&gt;" style="whiteSpace=wrap;html=1;aspect=fixed;fillColor=#dae8fc;strokeColor=#6c8ebf;fontFamily=Comic Sans MS;" parent="1" vertex="1">
                    <mxGeometry x="830.75" y="552" width="26" height="26" as="geometry"/>
                </mxCell>
                <mxCell id="Y3UnYj8FbFtQByEBO_pm-139" value="&lt;font color=&quot;#000000&quot;&gt;-0.&lt;/font&gt;&lt;font color=&quot;#000000&quot;&gt;4&lt;/font&gt;" style="whiteSpace=wrap;html=1;aspect=fixed;fillColor=#dae8fc;strokeColor=#6c8ebf;fontFamily=Comic Sans MS;" parent="1" vertex="1">
                    <mxGeometry x="856.75" y="552" width="26" height="26" as="geometry"/>
                </mxCell>
                <mxCell id="Y3UnYj8FbFtQByEBO_pm-140" value="&lt;font color=&quot;#000000&quot;&gt;0.&lt;/font&gt;&lt;font color=&quot;#000000&quot;&gt;4&lt;/font&gt;" style="whiteSpace=wrap;html=1;aspect=fixed;fillColor=#dae8fc;strokeColor=#6c8ebf;fontFamily=Comic Sans MS;" parent="1" vertex="1">
                    <mxGeometry x="882.75" y="552" width="26" height="26" as="geometry"/>
                </mxCell>
                <mxCell id="Y3UnYj8FbFtQByEBO_pm-141" value="&lt;font color=&quot;#000000&quot;&gt;0.&lt;/font&gt;&lt;font color=&quot;#000000&quot;&gt;2&lt;/font&gt;" style="whiteSpace=wrap;html=1;aspect=fixed;fillColor=#dae8fc;strokeColor=#6c8ebf;fontFamily=Comic Sans MS;" parent="1" vertex="1">
                    <mxGeometry x="908.75" y="552" width="26" height="26" as="geometry"/>
                </mxCell>
                <mxCell id="Y3UnYj8FbFtQByEBO_pm-142" value="&lt;font color=&quot;#000000&quot;&gt;-0.&lt;/font&gt;&lt;font color=&quot;#000000&quot;&gt;8&lt;/font&gt;" style="whiteSpace=wrap;html=1;aspect=fixed;fillColor=#dae8fc;strokeColor=#6c8ebf;fontFamily=Comic Sans MS;" parent="1" vertex="1">
                    <mxGeometry x="934.75" y="552" width="26" height="26" as="geometry"/>
                </mxCell>
                <mxCell id="Y3UnYj8FbFtQByEBO_pm-143" value="&lt;font color=&quot;#000000&quot;&gt;-0.&lt;/font&gt;&lt;font color=&quot;#000000&quot;&gt;7&lt;/font&gt;" style="whiteSpace=wrap;html=1;aspect=fixed;fillColor=#dae8fc;strokeColor=#6c8ebf;fontFamily=Comic Sans MS;" parent="1" vertex="1">
                    <mxGeometry x="960.75" y="552" width="26" height="26" as="geometry"/>
                </mxCell>
                <mxCell id="Y3UnYj8FbFtQByEBO_pm-144" value="&lt;font color=&quot;#000000&quot;&gt;0.&lt;/font&gt;&lt;font color=&quot;#000000&quot;&gt;2&lt;/font&gt;" style="whiteSpace=wrap;html=1;aspect=fixed;fillColor=#dae8fc;strokeColor=#6c8ebf;fontFamily=Comic Sans MS;" parent="1" vertex="1">
                    <mxGeometry x="986.75" y="552" width="26" height="26" as="geometry"/>
                </mxCell>
                <mxCell id="Y3UnYj8FbFtQByEBO_pm-145" value="&lt;font color=&quot;#000000&quot;&gt;-0.&lt;/font&gt;&lt;font color=&quot;#000000&quot;&gt;8&lt;/font&gt;" style="whiteSpace=wrap;html=1;aspect=fixed;fillColor=#dae8fc;strokeColor=#6c8ebf;fontFamily=Comic Sans MS;" parent="1" vertex="1">
                    <mxGeometry x="1012.75" y="552" width="26" height="26" as="geometry"/>
                </mxCell>
                <mxCell id="Y3UnYj8FbFtQByEBO_pm-148" value="&lt;font color=&quot;#000000&quot;&gt;-0.&lt;/font&gt;&lt;font color=&quot;#000000&quot;&gt;1&lt;/font&gt;" style="whiteSpace=wrap;html=1;aspect=fixed;fillColor=#dae8fc;strokeColor=#6c8ebf;fontFamily=Comic Sans MS;" parent="1" vertex="1">
                    <mxGeometry x="1038.75" y="552" width="26" height="26" as="geometry"/>
                </mxCell>
                <mxCell id="Y3UnYj8FbFtQByEBO_pm-193" value="Classification" style="text;html=1;align=center;verticalAlign=middle;resizable=0;points=[];autosize=1;strokeColor=none;fillColor=none;fontStyle=1;fontFamily=Comic Sans MS;fontSize=18;" parent="1" vertex="1">
                    <mxGeometry x="1345.88" y="210" width="140" height="40" as="geometry"/>
                </mxCell>
                <mxCell id="Y3UnYj8FbFtQByEBO_pm-200" value="" style="group;fontFamily=Comic Sans MS;" parent="1" vertex="1" connectable="0">
                    <mxGeometry x="803.75" y="293" width="260" height="26" as="geometry"/>
                </mxCell>
                <mxCell id="Y3UnYj8FbFtQByEBO_pm-49" value="&lt;font color=&quot;#000000&quot;&gt;0.6&lt;/font&gt;" style="whiteSpace=wrap;html=1;fillColor=#dae8fc;strokeColor=#6c8ebf;aspect=fixed;fontFamily=Comic Sans MS;" parent="Y3UnYj8FbFtQByEBO_pm-200" vertex="1">
                    <mxGeometry width="26" height="26" as="geometry"/>
                </mxCell>
                <mxCell id="Y3UnYj8FbFtQByEBO_pm-63" value="&lt;font color=&quot;#000000&quot;&gt;-0.&lt;/font&gt;&lt;font color=&quot;#000000&quot;&gt;9&lt;/font&gt;" style="whiteSpace=wrap;html=1;fillColor=#dae8fc;strokeColor=#6c8ebf;aspect=fixed;fontFamily=Comic Sans MS;" parent="Y3UnYj8FbFtQByEBO_pm-200" vertex="1">
                    <mxGeometry x="26" width="26" height="26" as="geometry"/>
                </mxCell>
                <mxCell id="Y3UnYj8FbFtQByEBO_pm-67" value="&lt;font color=&quot;#000000&quot;&gt;0.&lt;/font&gt;&lt;font color=&quot;#000000&quot;&gt;1&lt;/font&gt;" style="whiteSpace=wrap;html=1;fillColor=#dae8fc;strokeColor=#6c8ebf;aspect=fixed;fontFamily=Comic Sans MS;" parent="Y3UnYj8FbFtQByEBO_pm-200" vertex="1">
                    <mxGeometry x="156" width="26" height="26" as="geometry"/>
                </mxCell>
                <mxCell id="Y3UnYj8FbFtQByEBO_pm-72" value="&lt;font color=&quot;#000000&quot;&gt;0&lt;/font&gt;" style="whiteSpace=wrap;html=1;fillColor=#dae8fc;strokeColor=#6c8ebf;aspect=fixed;fontFamily=Comic Sans MS;" parent="Y3UnYj8FbFtQByEBO_pm-200" vertex="1">
                    <mxGeometry x="104" width="26" height="26" as="geometry"/>
                </mxCell>
                <mxCell id="Y3UnYj8FbFtQByEBO_pm-73" value="&lt;font color=&quot;#000000&quot;&gt;-0.&lt;/font&gt;&lt;font color=&quot;#000000&quot;&gt;4&lt;/font&gt;" style="whiteSpace=wrap;html=1;fillColor=#dae8fc;strokeColor=#6c8ebf;aspect=fixed;fontFamily=Comic Sans MS;" parent="Y3UnYj8FbFtQByEBO_pm-200" vertex="1">
                    <mxGeometry x="182" width="26" height="26" as="geometry"/>
                </mxCell>
                <mxCell id="Y3UnYj8FbFtQByEBO_pm-74" value="&lt;font color=&quot;#000000&quot;&gt;-0.&lt;/font&gt;&lt;font color=&quot;#000000&quot;&gt;5&lt;/font&gt;" style="whiteSpace=wrap;html=1;fillColor=#dae8fc;strokeColor=#6c8ebf;aspect=fixed;fontFamily=Comic Sans MS;" parent="Y3UnYj8FbFtQByEBO_pm-200" vertex="1">
                    <mxGeometry x="130" width="26" height="26" as="geometry"/>
                </mxCell>
                <mxCell id="Y3UnYj8FbFtQByEBO_pm-75" value="&lt;font color=&quot;#000000&quot;&gt;-0.&lt;/font&gt;&lt;font color=&quot;#000000&quot;&gt;9&lt;/font&gt;" style="whiteSpace=wrap;html=1;fillColor=#dae8fc;strokeColor=#6c8ebf;aspect=fixed;fontFamily=Comic Sans MS;" parent="Y3UnYj8FbFtQByEBO_pm-200" vertex="1">
                    <mxGeometry x="52" width="26" height="26" as="geometry"/>
                </mxCell>
                <mxCell id="Y3UnYj8FbFtQByEBO_pm-77" value="&lt;font color=&quot;#000000&quot;&gt;&lt;font color=&quot;#000000&quot;&gt;0.&lt;/font&gt;2&lt;/font&gt;" style="whiteSpace=wrap;html=1;fillColor=#dae8fc;strokeColor=#6c8ebf;aspect=fixed;fontFamily=Comic Sans MS;" parent="Y3UnYj8FbFtQByEBO_pm-200" vertex="1">
                    <mxGeometry x="78" width="26" height="26" as="geometry"/>
                </mxCell>
                <mxCell id="Y3UnYj8FbFtQByEBO_pm-79" value="&lt;font color=&quot;#000000&quot;&gt;-0.&lt;/font&gt;&lt;font color=&quot;#000000&quot;&gt;4&lt;/font&gt;" style="whiteSpace=wrap;html=1;fillColor=#dae8fc;strokeColor=#6c8ebf;aspect=fixed;fontFamily=Comic Sans MS;" parent="Y3UnYj8FbFtQByEBO_pm-200" vertex="1">
                    <mxGeometry x="208" width="26" height="26" as="geometry"/>
                </mxCell>
                <mxCell id="Y3UnYj8FbFtQByEBO_pm-80" value="&lt;font color=&quot;#000000&quot;&gt;0&lt;/font&gt;" style="whiteSpace=wrap;html=1;fillColor=#dae8fc;strokeColor=#6c8ebf;aspect=fixed;fontFamily=Comic Sans MS;" parent="Y3UnYj8FbFtQByEBO_pm-200" vertex="1">
                    <mxGeometry x="234" width="26" height="26" as="geometry"/>
                </mxCell>
                <mxCell id="Y3UnYj8FbFtQByEBO_pm-202" value="" style="group;fontFamily=Comic Sans MS;" parent="1" vertex="1" connectable="0">
                    <mxGeometry x="624.75" y="464" width="449" height="44" as="geometry"/>
                </mxCell>
                <mxCell id="Y3UnYj8FbFtQByEBO_pm-231" value="" style="group" parent="Y3UnYj8FbFtQByEBO_pm-202" vertex="1" connectable="0">
                    <mxGeometry x="180" y="18" width="260" height="26" as="geometry"/>
                </mxCell>
                <mxCell id="Y3UnYj8FbFtQByEBO_pm-124" value="&lt;font color=&quot;#000000&quot;&gt;-0.&lt;/font&gt;&lt;font color=&quot;#000000&quot;&gt;9&lt;/font&gt;" style="whiteSpace=wrap;html=1;aspect=fixed;fillColor=#dae8fc;strokeColor=#6c8ebf;fontFamily=Comic Sans MS;" parent="Y3UnYj8FbFtQByEBO_pm-231" vertex="1">
                    <mxGeometry width="26" height="26" as="geometry"/>
                </mxCell>
                <mxCell id="Y3UnYj8FbFtQByEBO_pm-125" value="&lt;font color=&quot;#000000&quot;&gt;-0.&lt;/font&gt;&lt;font color=&quot;#000000&quot;&gt;9&lt;/font&gt;" style="whiteSpace=wrap;html=1;aspect=fixed;fillColor=#dae8fc;strokeColor=#6c8ebf;fontFamily=Comic Sans MS;" parent="Y3UnYj8FbFtQByEBO_pm-231" vertex="1">
                    <mxGeometry x="26" width="26" height="26" as="geometry"/>
                </mxCell>
                <mxCell id="Y3UnYj8FbFtQByEBO_pm-126" value="&lt;font color=&quot;#000000&quot;&gt;0&lt;/font&gt;" style="whiteSpace=wrap;html=1;aspect=fixed;fillColor=#dae8fc;strokeColor=#6c8ebf;fontFamily=Comic Sans MS;" parent="Y3UnYj8FbFtQByEBO_pm-231" vertex="1">
                    <mxGeometry x="52" width="26" height="26" as="geometry"/>
                </mxCell>
                <mxCell id="Y3UnYj8FbFtQByEBO_pm-127" value="&lt;font color=&quot;#000000&quot;&gt;0&lt;/font&gt;" style="whiteSpace=wrap;html=1;aspect=fixed;fillColor=#dae8fc;strokeColor=#6c8ebf;fontFamily=Comic Sans MS;" parent="Y3UnYj8FbFtQByEBO_pm-231" vertex="1">
                    <mxGeometry x="78" width="26" height="26" as="geometry"/>
                </mxCell>
                <mxCell id="Y3UnYj8FbFtQByEBO_pm-128" value="&lt;font color=&quot;#000000&quot;&gt;0&lt;/font&gt;" style="whiteSpace=wrap;html=1;aspect=fixed;fillColor=#dae8fc;strokeColor=#6c8ebf;fontFamily=Comic Sans MS;" parent="Y3UnYj8FbFtQByEBO_pm-231" vertex="1">
                    <mxGeometry x="104" width="26" height="26" as="geometry"/>
                </mxCell>
                <mxCell id="Y3UnYj8FbFtQByEBO_pm-129" value="&lt;font color=&quot;#000000&quot;&gt;-0.&lt;/font&gt;&lt;font color=&quot;#000000&quot;&gt;4&lt;/font&gt;" style="whiteSpace=wrap;html=1;aspect=fixed;fillColor=#dae8fc;strokeColor=#6c8ebf;fontFamily=Comic Sans MS;" parent="Y3UnYj8FbFtQByEBO_pm-231" vertex="1">
                    <mxGeometry x="130" width="26" height="26" as="geometry"/>
                </mxCell>
                <mxCell id="Y3UnYj8FbFtQByEBO_pm-130" value="&lt;font color=&quot;#000000&quot;&gt;0.&lt;/font&gt;&lt;font color=&quot;#000000&quot;&gt;1&lt;/font&gt;" style="whiteSpace=wrap;html=1;aspect=fixed;fillColor=#dae8fc;strokeColor=#6c8ebf;fontFamily=Comic Sans MS;" parent="Y3UnYj8FbFtQByEBO_pm-231" vertex="1">
                    <mxGeometry x="156" width="26" height="26" as="geometry"/>
                </mxCell>
                <mxCell id="Y3UnYj8FbFtQByEBO_pm-131" value="&lt;font color=&quot;#000000&quot;&gt;-0.&lt;/font&gt;&lt;font color=&quot;#000000&quot;&gt;8&lt;/font&gt;" style="whiteSpace=wrap;html=1;aspect=fixed;fillColor=#dae8fc;strokeColor=#6c8ebf;fontFamily=Comic Sans MS;" parent="Y3UnYj8FbFtQByEBO_pm-231" vertex="1">
                    <mxGeometry x="182" width="26" height="26" as="geometry"/>
                </mxCell>
                <mxCell id="Y3UnYj8FbFtQByEBO_pm-132" value="&lt;font color=&quot;#000000&quot;&gt;-0.&lt;/font&gt;&lt;font color=&quot;#000000&quot;&gt;2&lt;/font&gt;" style="whiteSpace=wrap;html=1;aspect=fixed;fillColor=#dae8fc;strokeColor=#6c8ebf;fontFamily=Comic Sans MS;" parent="Y3UnYj8FbFtQByEBO_pm-231" vertex="1">
                    <mxGeometry x="208" width="26" height="26" as="geometry"/>
                </mxCell>
                <mxCell id="Y3UnYj8FbFtQByEBO_pm-133" value="&lt;font color=&quot;#000000&quot;&gt;-0.&lt;/font&gt;&lt;font color=&quot;#000000&quot;&gt;6&lt;/font&gt;" style="whiteSpace=wrap;html=1;aspect=fixed;fillColor=#dae8fc;strokeColor=#6c8ebf;fontFamily=Comic Sans MS;" parent="Y3UnYj8FbFtQByEBO_pm-231" vertex="1">
                    <mxGeometry x="234" width="26" height="26" as="geometry"/>
                </mxCell>
                <mxCell id="Y3UnYj8FbFtQByEBO_pm-236" value="" style="endArrow=classic;html=1;rounded=0;" parent="Y3UnYj8FbFtQByEBO_pm-202" edge="1">
                    <mxGeometry width="50" height="50" relative="1" as="geometry">
                        <mxPoint x="56.25" as="sourcePoint"/>
                        <mxPoint x="136.25" as="targetPoint"/>
                    </mxGeometry>
                </mxCell>
                <mxCell id="Y3UnYj8FbFtQByEBO_pm-237" value="" style="endArrow=classic;html=1;rounded=0;" parent="Y3UnYj8FbFtQByEBO_pm-202" edge="1">
                    <mxGeometry width="50" height="50" relative="1" as="geometry">
                        <mxPoint x="56.25" y="30.470000000000027" as="sourcePoint"/>
                        <mxPoint x="136.25" y="30.470000000000027" as="targetPoint"/>
                    </mxGeometry>
                </mxCell>
                <mxCell id="Y3UnYj8FbFtQByEBO_pm-203" value="" style="group;fontFamily=Comic Sans MS;" parent="1" vertex="1" connectable="0">
                    <mxGeometry x="624.75" y="434" width="260" height="26" as="geometry"/>
                </mxCell>
                <mxCell id="Y3UnYj8FbFtQByEBO_pm-111" value="&lt;font color=&quot;#000000&quot;&gt;-0.&lt;/font&gt;&lt;font color=&quot;#000000&quot;&gt;2&lt;/font&gt;" style="whiteSpace=wrap;html=1;aspect=fixed;fillColor=#dae8fc;strokeColor=#6c8ebf;fontFamily=Comic Sans MS;" parent="Y3UnYj8FbFtQByEBO_pm-203" vertex="1">
                    <mxGeometry x="180.05" y="18" width="26" height="26" as="geometry"/>
                </mxCell>
                <mxCell id="Y3UnYj8FbFtQByEBO_pm-112" value="&lt;font color=&quot;#000000&quot;&gt;0.&lt;/font&gt;&lt;font color=&quot;#000000&quot;&gt;2&lt;/font&gt;" style="whiteSpace=wrap;html=1;aspect=fixed;fillColor=#dae8fc;strokeColor=#6c8ebf;fontFamily=Comic Sans MS;" parent="Y3UnYj8FbFtQByEBO_pm-203" vertex="1">
                    <mxGeometry x="206.05009633911368" y="18" width="26" height="26" as="geometry"/>
                </mxCell>
                <mxCell id="Y3UnYj8FbFtQByEBO_pm-113" value="&lt;font color=&quot;#000000&quot;&gt;-0.&lt;/font&gt;&lt;font color=&quot;#000000&quot;&gt;2&lt;/font&gt;" style="whiteSpace=wrap;html=1;aspect=fixed;fillColor=#dae8fc;strokeColor=#6c8ebf;fontFamily=Comic Sans MS;" parent="Y3UnYj8FbFtQByEBO_pm-203" vertex="1">
                    <mxGeometry x="232.10019267822736" y="18" width="26" height="26" as="geometry"/>
                </mxCell>
                <mxCell id="Y3UnYj8FbFtQByEBO_pm-114" value="&lt;font color=&quot;#000000&quot;&gt;-0.&lt;/font&gt;&lt;font color=&quot;#000000&quot;&gt;1&lt;/font&gt;" style="whiteSpace=wrap;html=1;aspect=fixed;fillColor=#dae8fc;strokeColor=#6c8ebf;fontFamily=Comic Sans MS;" parent="Y3UnYj8FbFtQByEBO_pm-203" vertex="1">
                    <mxGeometry x="258.15028901734104" y="18" width="26" height="26" as="geometry"/>
                </mxCell>
                <mxCell id="Y3UnYj8FbFtQByEBO_pm-115" value="&lt;font color=&quot;#000000&quot;&gt;0.&lt;/font&gt;&lt;font color=&quot;#000000&quot;&gt;1&lt;/font&gt;" style="whiteSpace=wrap;html=1;aspect=fixed;fillColor=#dae8fc;strokeColor=#6c8ebf;fontFamily=Comic Sans MS;" parent="Y3UnYj8FbFtQByEBO_pm-203" vertex="1">
                    <mxGeometry x="310.2504816955684" y="18" width="26" height="26" as="geometry"/>
                </mxCell>
                <mxCell id="Y3UnYj8FbFtQByEBO_pm-116" value="&lt;font color=&quot;#000000&quot;&gt;0&lt;/font&gt;" style="whiteSpace=wrap;html=1;aspect=fixed;fillColor=#dae8fc;strokeColor=#6c8ebf;fontFamily=Comic Sans MS;" parent="Y3UnYj8FbFtQByEBO_pm-203" vertex="1">
                    <mxGeometry x="284.2003853564547" y="18" width="26" height="26" as="geometry"/>
                </mxCell>
                <mxCell id="Y3UnYj8FbFtQByEBO_pm-117" value="&lt;font color=&quot;#000000&quot;&gt;0.&lt;/font&gt;&lt;font color=&quot;#000000&quot;&gt;0&lt;/font&gt;" style="whiteSpace=wrap;html=1;aspect=fixed;fillColor=#dae8fc;strokeColor=#6c8ebf;fontFamily=Comic Sans MS;" parent="Y3UnYj8FbFtQByEBO_pm-203" vertex="1">
                    <mxGeometry x="336.3005780346821" y="18" width="26" height="26" as="geometry"/>
                </mxCell>
                <mxCell id="Y3UnYj8FbFtQByEBO_pm-119" value="&lt;font color=&quot;#000000&quot;&gt;-0.&lt;/font&gt;&lt;font color=&quot;#000000&quot;&gt;1&lt;/font&gt;" style="whiteSpace=wrap;html=1;aspect=fixed;fillColor=#dae8fc;strokeColor=#6c8ebf;fontFamily=Comic Sans MS;" parent="Y3UnYj8FbFtQByEBO_pm-203" vertex="1">
                    <mxGeometry x="361.84971098265896" y="18" width="26" height="26" as="geometry"/>
                </mxCell>
                <mxCell id="Y3UnYj8FbFtQByEBO_pm-120" value="&lt;font color=&quot;#000000&quot;&gt;0.&lt;/font&gt;&lt;font color=&quot;#000000&quot;&gt;9&lt;/font&gt;" style="whiteSpace=wrap;html=1;aspect=fixed;fillColor=#dae8fc;strokeColor=#6c8ebf;fontFamily=Comic Sans MS;" parent="Y3UnYj8FbFtQByEBO_pm-203" vertex="1">
                    <mxGeometry x="388.40077071290943" y="18" width="26" height="26" as="geometry"/>
                </mxCell>
                <mxCell id="Y3UnYj8FbFtQByEBO_pm-121" value="&lt;font color=&quot;#000000&quot;&gt;-0.&lt;/font&gt;&lt;font color=&quot;#000000&quot;&gt;6&lt;/font&gt;" style="whiteSpace=wrap;html=1;aspect=fixed;fillColor=#dae8fc;strokeColor=#6c8ebf;fontFamily=Comic Sans MS;" parent="Y3UnYj8FbFtQByEBO_pm-203" vertex="1">
                    <mxGeometry x="413.9499036608863" y="18" width="26" height="26" as="geometry"/>
                </mxCell>
                <mxCell id="Y3UnYj8FbFtQByEBO_pm-235" value="" style="endArrow=classic;html=1;rounded=0;" parent="Y3UnYj8FbFtQByEBO_pm-203" edge="1">
                    <mxGeometry width="50" height="50" relative="1" as="geometry">
                        <mxPoint x="56.25" as="sourcePoint"/>
                        <mxPoint x="136.25" as="targetPoint"/>
                    </mxGeometry>
                </mxCell>
                <mxCell id="Y3UnYj8FbFtQByEBO_pm-204" value="" style="group;fontFamily=Comic Sans MS;" parent="1" vertex="1" connectable="0">
                    <mxGeometry x="624.75" y="404" width="260" height="26" as="geometry"/>
                </mxCell>
                <mxCell id="Y3UnYj8FbFtQByEBO_pm-99" value="&lt;font color=&quot;#000000&quot;&gt;0.&lt;/font&gt;&lt;font color=&quot;#000000&quot;&gt;1&lt;/font&gt;" style="whiteSpace=wrap;html=1;aspect=fixed;fillColor=#dae8fc;strokeColor=#6c8ebf;fontFamily=Comic Sans MS;" parent="Y3UnYj8FbFtQByEBO_pm-204" vertex="1">
                    <mxGeometry x="180" y="18" width="26" height="26" as="geometry"/>
                </mxCell>
                <mxCell id="Y3UnYj8FbFtQByEBO_pm-100" value="&lt;font color=&quot;#000000&quot;&gt;-0.&lt;/font&gt;&lt;font color=&quot;#000000&quot;&gt;6&lt;/font&gt;" style="whiteSpace=wrap;html=1;aspect=fixed;fillColor=#dae8fc;strokeColor=#6c8ebf;fontFamily=Comic Sans MS;" parent="Y3UnYj8FbFtQByEBO_pm-204" vertex="1">
                    <mxGeometry x="206" y="18" width="26" height="26" as="geometry"/>
                </mxCell>
                <mxCell id="Y3UnYj8FbFtQByEBO_pm-101" value="&lt;font color=&quot;#000000&quot;&gt;0.&lt;/font&gt;&lt;font color=&quot;#000000&quot;&gt;9&lt;/font&gt;" style="whiteSpace=wrap;html=1;aspect=fixed;fillColor=#dae8fc;strokeColor=#6c8ebf;fontFamily=Comic Sans MS;" parent="Y3UnYj8FbFtQByEBO_pm-204" vertex="1">
                    <mxGeometry x="232" y="18" width="26" height="26" as="geometry"/>
                </mxCell>
                <mxCell id="Y3UnYj8FbFtQByEBO_pm-102" value="&lt;font color=&quot;#000000&quot;&gt;-0.&lt;/font&gt;&lt;font color=&quot;#000000&quot;&gt;5&lt;/font&gt;" style="whiteSpace=wrap;html=1;aspect=fixed;fillColor=#dae8fc;strokeColor=#6c8ebf;fontFamily=Comic Sans MS;" parent="Y3UnYj8FbFtQByEBO_pm-204" vertex="1">
                    <mxGeometry x="258" y="18" width="26" height="26" as="geometry"/>
                </mxCell>
                <mxCell id="Y3UnYj8FbFtQByEBO_pm-103" value="&lt;font color=&quot;#000000&quot;&gt;-0.&lt;/font&gt;&lt;font color=&quot;#000000&quot;&gt;7&lt;/font&gt;" style="whiteSpace=wrap;html=1;aspect=fixed;fillColor=#dae8fc;strokeColor=#6c8ebf;fontFamily=Comic Sans MS;" parent="Y3UnYj8FbFtQByEBO_pm-204" vertex="1">
                    <mxGeometry x="284" y="18" width="26" height="26" as="geometry"/>
                </mxCell>
                <mxCell id="Y3UnYj8FbFtQByEBO_pm-105" value="&lt;font color=&quot;#000000&quot;&gt;-0.&lt;/font&gt;&lt;font color=&quot;#000000&quot;&gt;7&lt;/font&gt;" style="whiteSpace=wrap;html=1;aspect=fixed;fillColor=#dae8fc;strokeColor=#6c8ebf;fontFamily=Comic Sans MS;" parent="Y3UnYj8FbFtQByEBO_pm-204" vertex="1">
                    <mxGeometry x="310" y="18" width="26" height="26" as="geometry"/>
                </mxCell>
                <mxCell id="Y3UnYj8FbFtQByEBO_pm-107" value="&lt;font color=&quot;#000000&quot;&gt;0.&lt;/font&gt;&lt;font color=&quot;#000000&quot;&gt;7&lt;/font&gt;" style="whiteSpace=wrap;html=1;aspect=fixed;fillColor=#dae8fc;strokeColor=#6c8ebf;fontFamily=Comic Sans MS;" parent="Y3UnYj8FbFtQByEBO_pm-204" vertex="1">
                    <mxGeometry x="336" y="18" width="26" height="26" as="geometry"/>
                </mxCell>
                <mxCell id="Y3UnYj8FbFtQByEBO_pm-108" value="&lt;font color=&quot;#000000&quot;&gt;0.&lt;/font&gt;&lt;font color=&quot;#000000&quot;&gt;7&lt;/font&gt;" style="whiteSpace=wrap;html=1;aspect=fixed;fillColor=#dae8fc;strokeColor=#6c8ebf;fontFamily=Comic Sans MS;" parent="Y3UnYj8FbFtQByEBO_pm-204" vertex="1">
                    <mxGeometry x="362" y="18" width="26" height="26" as="geometry"/>
                </mxCell>
                <mxCell id="Y3UnYj8FbFtQByEBO_pm-109" value="&lt;font color=&quot;#000000&quot;&gt;-0.&lt;/font&gt;&lt;font color=&quot;#000000&quot;&gt;8&lt;/font&gt;" style="whiteSpace=wrap;html=1;aspect=fixed;fillColor=#dae8fc;strokeColor=#6c8ebf;fontFamily=Comic Sans MS;" parent="Y3UnYj8FbFtQByEBO_pm-204" vertex="1">
                    <mxGeometry x="387.5" y="18" width="26" height="26" as="geometry"/>
                </mxCell>
                <mxCell id="Y3UnYj8FbFtQByEBO_pm-110" value="&lt;font color=&quot;#000000&quot;&gt;0&lt;/font&gt;" style="whiteSpace=wrap;html=1;aspect=fixed;fillColor=#dae8fc;strokeColor=#6c8ebf;fontFamily=Comic Sans MS;" parent="Y3UnYj8FbFtQByEBO_pm-204" vertex="1">
                    <mxGeometry x="414" y="18" width="26" height="26" as="geometry"/>
                </mxCell>
                <mxCell id="Y3UnYj8FbFtQByEBO_pm-206" value="" style="group;fontFamily=Comic Sans MS;fontColor=#000000;" parent="1" vertex="1" connectable="0">
                    <mxGeometry x="541" y="300" width="80" height="20" as="geometry"/>
                </mxCell>
                <mxCell id="Y3UnYj8FbFtQByEBO_pm-7" value="&lt;font&gt;B&lt;/font&gt;" style="whiteSpace=wrap;html=1;aspect=fixed;fillColor=#d5e8d4;strokeColor=#82b366;fontFamily=Comic Sans MS;fontColor=#000000;" parent="Y3UnYj8FbFtQByEBO_pm-206" vertex="1">
                    <mxGeometry width="20" height="20" as="geometry"/>
                </mxCell>
                <mxCell id="Y3UnYj8FbFtQByEBO_pm-8" value="&lt;font&gt;U&lt;/font&gt;" style="whiteSpace=wrap;html=1;aspect=fixed;fillColor=#d5e8d4;strokeColor=#82b366;fontFamily=Comic Sans MS;fontColor=#000000;" parent="Y3UnYj8FbFtQByEBO_pm-206" vertex="1">
                    <mxGeometry x="20" width="20" height="20" as="geometry"/>
                </mxCell>
                <mxCell id="Y3UnYj8FbFtQByEBO_pm-10" value="&lt;font&gt;S&lt;/font&gt;" style="whiteSpace=wrap;html=1;aspect=fixed;fillColor=#d5e8d4;strokeColor=#82b366;fontFamily=Comic Sans MS;fontColor=#000000;" parent="Y3UnYj8FbFtQByEBO_pm-206" vertex="1">
                    <mxGeometry x="40" width="20" height="20" as="geometry"/>
                </mxCell>
                <mxCell id="Y3UnYj8FbFtQByEBO_pm-11" value="I" style="whiteSpace=wrap;html=1;aspect=fixed;fillColor=#d5e8d4;strokeColor=#82b366;fontFamily=Comic Sans MS;fontColor=#000000;" parent="Y3UnYj8FbFtQByEBO_pm-206" vertex="1">
                    <mxGeometry x="60" width="20" height="20" as="geometry"/>
                </mxCell>
                <mxCell id="Y3UnYj8FbFtQByEBO_pm-207" value="" style="group;fontFamily=Comic Sans MS;fontColor=#000000;" parent="1" vertex="1" connectable="0">
                    <mxGeometry x="541" y="325" width="80" height="20" as="geometry"/>
                </mxCell>
                <mxCell id="Y3UnYj8FbFtQByEBO_pm-12" value="&lt;font&gt;U&lt;/font&gt;" style="whiteSpace=wrap;html=1;aspect=fixed;fillColor=#d5e8d4;strokeColor=#82b366;fontFamily=Comic Sans MS;fontColor=#000000;" parent="Y3UnYj8FbFtQByEBO_pm-207" vertex="1">
                    <mxGeometry width="20" height="20" as="geometry"/>
                </mxCell>
                <mxCell id="Y3UnYj8FbFtQByEBO_pm-14" value="&lt;font&gt;S&lt;/font&gt;" style="whiteSpace=wrap;html=1;aspect=fixed;fillColor=#d5e8d4;strokeColor=#82b366;fontFamily=Comic Sans MS;fontColor=#000000;" parent="Y3UnYj8FbFtQByEBO_pm-207" vertex="1">
                    <mxGeometry x="20" width="20" height="20" as="geometry"/>
                </mxCell>
                <mxCell id="Y3UnYj8FbFtQByEBO_pm-15" value="I" style="whiteSpace=wrap;html=1;aspect=fixed;fillColor=#d5e8d4;strokeColor=#82b366;fontFamily=Comic Sans MS;fontColor=#000000;" parent="Y3UnYj8FbFtQByEBO_pm-207" vertex="1">
                    <mxGeometry x="40" width="20" height="20" as="geometry"/>
                </mxCell>
                <mxCell id="Y3UnYj8FbFtQByEBO_pm-16" value="N" style="whiteSpace=wrap;html=1;aspect=fixed;fillColor=#d5e8d4;strokeColor=#82b366;fontFamily=Comic Sans MS;fontColor=#000000;" parent="Y3UnYj8FbFtQByEBO_pm-207" vertex="1">
                    <mxGeometry x="60" width="20" height="20" as="geometry"/>
                </mxCell>
                <mxCell id="Y3UnYj8FbFtQByEBO_pm-209" value="" style="group;fontFamily=Comic Sans MS;" parent="1" vertex="1" connectable="0">
                    <mxGeometry x="491" y="430" width="180" height="20" as="geometry"/>
                </mxCell>
                <mxCell id="Y3UnYj8FbFtQByEBO_pm-21" value="&lt;font color=&quot;#000000&quot;&gt;BUSINESS&lt;/font&gt;" style="rounded=0;whiteSpace=wrap;html=1;fillColor=#fff2cc;strokeColor=#d6b656;fontFamily=Comic Sans MS;" parent="Y3UnYj8FbFtQByEBO_pm-209" vertex="1">
                    <mxGeometry width="90" height="20" as="geometry"/>
                </mxCell>
                <mxCell id="Y3UnYj8FbFtQByEBO_pm-22" value="&lt;font color=&quot;#000000&quot;&gt;ENGINEERING&lt;/font&gt;" style="rounded=0;whiteSpace=wrap;html=1;fillColor=#fff2cc;strokeColor=#d6b656;fontFamily=Comic Sans MS;" parent="Y3UnYj8FbFtQByEBO_pm-209" vertex="1">
                    <mxGeometry x="90" width="90" height="20" as="geometry"/>
                </mxCell>
                <mxCell id="Y3UnYj8FbFtQByEBO_pm-210" value="" style="group;fontFamily=Comic Sans MS;" parent="1" vertex="1" connectable="0">
                    <mxGeometry x="507.25" y="455" width="147.5" height="20" as="geometry"/>
                </mxCell>
                <mxCell id="Y3UnYj8FbFtQByEBO_pm-23" value="&lt;font color=&quot;#000000&quot;&gt;ENGINEERING&lt;/font&gt;" style="rounded=0;whiteSpace=wrap;html=1;fillColor=#fff2cc;strokeColor=#d6b656;fontFamily=Comic Sans MS;" parent="Y3UnYj8FbFtQByEBO_pm-210" vertex="1">
                    <mxGeometry width="102.5" height="20" as="geometry"/>
                </mxCell>
                <mxCell id="Y3UnYj8FbFtQByEBO_pm-24" value="&lt;font color=&quot;#000000&quot;&gt;AND&lt;/font&gt;" style="rounded=0;whiteSpace=wrap;html=1;fillColor=#fff2cc;strokeColor=#d6b656;fontFamily=Comic Sans MS;" parent="Y3UnYj8FbFtQByEBO_pm-210" vertex="1">
                    <mxGeometry x="102.5" width="45" height="20" as="geometry"/>
                </mxCell>
                <mxCell id="Y3UnYj8FbFtQByEBO_pm-211" value="" style="group;fontFamily=Comic Sans MS;" parent="1" vertex="1" connectable="0">
                    <mxGeometry x="512.5" y="480" width="135" height="20" as="geometry"/>
                </mxCell>
                <mxCell id="Y3UnYj8FbFtQByEBO_pm-26" value="&lt;font color=&quot;#000000&quot;&gt;AND&lt;/font&gt;" style="rounded=0;whiteSpace=wrap;html=1;fillColor=#fff2cc;strokeColor=#d6b656;fontFamily=Comic Sans MS;" parent="Y3UnYj8FbFtQByEBO_pm-211" vertex="1">
                    <mxGeometry width="45" height="20" as="geometry"/>
                </mxCell>
                <mxCell id="Y3UnYj8FbFtQByEBO_pm-27" value="&lt;font color=&quot;#000000&quot;&gt;SERVICES&lt;/font&gt;" style="rounded=0;whiteSpace=wrap;html=1;fillColor=#fff2cc;strokeColor=#d6b656;fontFamily=Comic Sans MS;" parent="Y3UnYj8FbFtQByEBO_pm-211" vertex="1">
                    <mxGeometry x="45" width="90" height="20" as="geometry"/>
                </mxCell>
                <mxCell id="Y3UnYj8FbFtQByEBO_pm-214" value="" style="group;fontFamily=Comic Sans MS;" parent="1" vertex="1" connectable="0">
                    <mxGeometry x="804.75" y="642" width="260" height="26" as="geometry"/>
                </mxCell>
                <mxCell id="Y3UnYj8FbFtQByEBO_pm-171" value="&lt;font color=&quot;#000000&quot;&gt;0.&lt;/font&gt;&lt;font color=&quot;#000000&quot;&gt;5&lt;/font&gt;" style="whiteSpace=wrap;html=1;aspect=fixed;fillColor=#dae8fc;strokeColor=#6c8ebf;container=0;fontFamily=Comic Sans MS;" parent="Y3UnYj8FbFtQByEBO_pm-214" vertex="1">
                    <mxGeometry width="26" height="26" as="geometry"/>
                </mxCell>
                <mxCell id="Y3UnYj8FbFtQByEBO_pm-172" value="&lt;font color=&quot;#000000&quot;&gt;0.&lt;/font&gt;&lt;font color=&quot;#000000&quot;&gt;3&lt;/font&gt;" style="whiteSpace=wrap;html=1;aspect=fixed;fillColor=#dae8fc;strokeColor=#6c8ebf;container=0;fontFamily=Comic Sans MS;" parent="Y3UnYj8FbFtQByEBO_pm-214" vertex="1">
                    <mxGeometry x="26" width="26" height="26" as="geometry"/>
                </mxCell>
                <mxCell id="Y3UnYj8FbFtQByEBO_pm-174" value="&lt;font color=&quot;#000000&quot;&gt;0.&lt;/font&gt;&lt;font color=&quot;#000000&quot;&gt;6&lt;/font&gt;" style="whiteSpace=wrap;html=1;aspect=fixed;fillColor=#dae8fc;strokeColor=#6c8ebf;container=0;fontFamily=Comic Sans MS;" parent="Y3UnYj8FbFtQByEBO_pm-214" vertex="1">
                    <mxGeometry x="52" width="26" height="26" as="geometry"/>
                </mxCell>
                <mxCell id="Y3UnYj8FbFtQByEBO_pm-175" value="&lt;font color=&quot;#000000&quot;&gt;0.&lt;/font&gt;&lt;font color=&quot;#000000&quot;&gt;6&lt;/font&gt;" style="whiteSpace=wrap;html=1;aspect=fixed;fillColor=#dae8fc;strokeColor=#6c8ebf;container=0;fontFamily=Comic Sans MS;" parent="Y3UnYj8FbFtQByEBO_pm-214" vertex="1">
                    <mxGeometry x="78" width="26" height="26" as="geometry"/>
                </mxCell>
                <mxCell id="Y3UnYj8FbFtQByEBO_pm-176" value="&lt;font color=&quot;#000000&quot;&gt;0&lt;/font&gt;" style="whiteSpace=wrap;html=1;aspect=fixed;fillColor=#dae8fc;strokeColor=#6c8ebf;container=0;fontFamily=Comic Sans MS;" parent="Y3UnYj8FbFtQByEBO_pm-214" vertex="1">
                    <mxGeometry x="104" width="26" height="26" as="geometry"/>
                </mxCell>
                <mxCell id="Y3UnYj8FbFtQByEBO_pm-177" value="&lt;font color=&quot;#000000&quot;&gt;0.&lt;/font&gt;&lt;font color=&quot;#000000&quot;&gt;9&lt;/font&gt;" style="whiteSpace=wrap;html=1;aspect=fixed;fillColor=#dae8fc;strokeColor=#6c8ebf;container=0;fontFamily=Comic Sans MS;" parent="Y3UnYj8FbFtQByEBO_pm-214" vertex="1">
                    <mxGeometry x="130" width="26" height="26" as="geometry"/>
                </mxCell>
                <mxCell id="Y3UnYj8FbFtQByEBO_pm-179" value="&lt;font color=&quot;#000000&quot;&gt;0.&lt;/font&gt;&lt;font color=&quot;#000000&quot;&gt;2&lt;/font&gt;" style="whiteSpace=wrap;html=1;aspect=fixed;fillColor=#dae8fc;strokeColor=#6c8ebf;container=0;fontFamily=Comic Sans MS;" parent="Y3UnYj8FbFtQByEBO_pm-214" vertex="1">
                    <mxGeometry x="156" width="26" height="26" as="geometry"/>
                </mxCell>
                <mxCell id="Y3UnYj8FbFtQByEBO_pm-180" value="&lt;font color=&quot;#000000&quot;&gt;0.&lt;/font&gt;&lt;font color=&quot;#000000&quot;&gt;7&lt;/font&gt;" style="whiteSpace=wrap;html=1;aspect=fixed;fillColor=#dae8fc;strokeColor=#6c8ebf;container=0;fontFamily=Comic Sans MS;" parent="Y3UnYj8FbFtQByEBO_pm-214" vertex="1">
                    <mxGeometry x="182" width="26" height="26" as="geometry"/>
                </mxCell>
                <mxCell id="Y3UnYj8FbFtQByEBO_pm-181" value="&lt;font color=&quot;#000000&quot;&gt;0.&lt;/font&gt;&lt;font color=&quot;#000000&quot;&gt;4&lt;/font&gt;" style="whiteSpace=wrap;html=1;aspect=fixed;fillColor=#dae8fc;strokeColor=#6c8ebf;container=0;fontFamily=Comic Sans MS;" parent="Y3UnYj8FbFtQByEBO_pm-214" vertex="1">
                    <mxGeometry x="208" width="26" height="26" as="geometry"/>
                </mxCell>
                <mxCell id="Y3UnYj8FbFtQByEBO_pm-182" value="&lt;font color=&quot;#000000&quot;&gt;-0.&lt;/font&gt;&lt;font color=&quot;#000000&quot;&gt;8&lt;/font&gt;" style="whiteSpace=wrap;html=1;aspect=fixed;fillColor=#dae8fc;strokeColor=#6c8ebf;container=0;fontFamily=Comic Sans MS;" parent="Y3UnYj8FbFtQByEBO_pm-214" vertex="1">
                    <mxGeometry x="234" width="26" height="26" as="geometry"/>
                </mxCell>
                <mxCell id="Y3UnYj8FbFtQByEBO_pm-216" value="" style="group;fontFamily=Comic Sans MS;" parent="1" vertex="1" connectable="0">
                    <mxGeometry x="804.75" y="612" width="260" height="26" as="geometry"/>
                </mxCell>
                <mxCell id="Y3UnYj8FbFtQByEBO_pm-160" value="&lt;font color=&quot;#000000&quot;&gt;0.&lt;/font&gt;&lt;font color=&quot;#000000&quot;&gt;7&lt;/font&gt;" style="whiteSpace=wrap;html=1;aspect=fixed;fillColor=#dae8fc;strokeColor=#6c8ebf;fontFamily=Comic Sans MS;" parent="Y3UnYj8FbFtQByEBO_pm-216" vertex="1">
                    <mxGeometry width="26" height="26" as="geometry"/>
                </mxCell>
                <mxCell id="Y3UnYj8FbFtQByEBO_pm-161" value="&lt;font color=&quot;#000000&quot;&gt;-0.&lt;/font&gt;&lt;font color=&quot;#000000&quot;&gt;7&lt;/font&gt;" style="whiteSpace=wrap;html=1;aspect=fixed;fillColor=#dae8fc;strokeColor=#6c8ebf;fontFamily=Comic Sans MS;" parent="Y3UnYj8FbFtQByEBO_pm-216" vertex="1">
                    <mxGeometry x="26" width="26" height="26" as="geometry"/>
                </mxCell>
                <mxCell id="Y3UnYj8FbFtQByEBO_pm-162" value="&lt;font color=&quot;#000000&quot;&gt;0.&lt;/font&gt;&lt;font color=&quot;#000000&quot;&gt;8&lt;/font&gt;" style="whiteSpace=wrap;html=1;aspect=fixed;fillColor=#dae8fc;strokeColor=#6c8ebf;fontFamily=Comic Sans MS;" parent="Y3UnYj8FbFtQByEBO_pm-216" vertex="1">
                    <mxGeometry x="52" width="26" height="26" as="geometry"/>
                </mxCell>
                <mxCell id="Y3UnYj8FbFtQByEBO_pm-163" value="&lt;font color=&quot;#000000&quot;&gt;-0.&lt;/font&gt;&lt;font color=&quot;#000000&quot;&gt;9&lt;/font&gt;" style="whiteSpace=wrap;html=1;aspect=fixed;fillColor=#dae8fc;strokeColor=#6c8ebf;fontFamily=Comic Sans MS;" parent="Y3UnYj8FbFtQByEBO_pm-216" vertex="1">
                    <mxGeometry x="78" width="26" height="26" as="geometry"/>
                </mxCell>
                <mxCell id="Y3UnYj8FbFtQByEBO_pm-164" value="&lt;font color=&quot;#000000&quot;&gt;0&lt;/font&gt;" style="whiteSpace=wrap;html=1;aspect=fixed;fillColor=#dae8fc;strokeColor=#6c8ebf;fontFamily=Comic Sans MS;" parent="Y3UnYj8FbFtQByEBO_pm-216" vertex="1">
                    <mxGeometry x="104" width="26" height="26" as="geometry"/>
                </mxCell>
                <mxCell id="Y3UnYj8FbFtQByEBO_pm-165" value="&lt;font color=&quot;#000000&quot;&gt;0&lt;/font&gt;" style="whiteSpace=wrap;html=1;aspect=fixed;fillColor=#dae8fc;strokeColor=#6c8ebf;fontFamily=Comic Sans MS;" parent="Y3UnYj8FbFtQByEBO_pm-216" vertex="1">
                    <mxGeometry x="130" width="26" height="26" as="geometry"/>
                </mxCell>
                <mxCell id="Y3UnYj8FbFtQByEBO_pm-166" value="&lt;font color=&quot;#000000&quot;&gt;0&lt;/font&gt;" style="whiteSpace=wrap;html=1;aspect=fixed;fillColor=#dae8fc;strokeColor=#6c8ebf;fontFamily=Comic Sans MS;" parent="Y3UnYj8FbFtQByEBO_pm-216" vertex="1">
                    <mxGeometry x="156" width="26" height="26" as="geometry"/>
                </mxCell>
                <mxCell id="Y3UnYj8FbFtQByEBO_pm-167" value="&lt;font color=&quot;#000000&quot;&gt;0&lt;/font&gt;" style="whiteSpace=wrap;html=1;aspect=fixed;fillColor=#dae8fc;strokeColor=#6c8ebf;fontFamily=Comic Sans MS;" parent="Y3UnYj8FbFtQByEBO_pm-216" vertex="1">
                    <mxGeometry x="182" width="26" height="26" as="geometry"/>
                </mxCell>
                <mxCell id="Y3UnYj8FbFtQByEBO_pm-168" value="&lt;font color=&quot;#000000&quot;&gt;0&lt;/font&gt;" style="whiteSpace=wrap;html=1;aspect=fixed;fillColor=#dae8fc;strokeColor=#6c8ebf;fontFamily=Comic Sans MS;" parent="Y3UnYj8FbFtQByEBO_pm-216" vertex="1">
                    <mxGeometry x="208" width="26" height="26" as="geometry"/>
                </mxCell>
                <mxCell id="Y3UnYj8FbFtQByEBO_pm-169" value="&lt;font color=&quot;#000000&quot;&gt;0.&lt;/font&gt;&lt;font color=&quot;#000000&quot;&gt;9&lt;/font&gt;" style="whiteSpace=wrap;html=1;aspect=fixed;fillColor=#dae8fc;strokeColor=#6c8ebf;fontFamily=Comic Sans MS;" parent="Y3UnYj8FbFtQByEBO_pm-216" vertex="1">
                    <mxGeometry x="234" width="26" height="26" as="geometry"/>
                </mxCell>
                <mxCell id="Y3UnYj8FbFtQByEBO_pm-219" value="" style="group;fontFamily=Comic Sans MS;" parent="1" vertex="1" connectable="0">
                    <mxGeometry x="804.75" y="582" width="260" height="26" as="geometry"/>
                </mxCell>
                <mxCell id="Y3UnYj8FbFtQByEBO_pm-149" value="&lt;font color=&quot;#000000&quot;&gt;0.&lt;/font&gt;&lt;font color=&quot;#000000&quot;&gt;4&lt;/font&gt;" style="whiteSpace=wrap;html=1;aspect=fixed;fillColor=#dae8fc;strokeColor=#6c8ebf;fontFamily=Comic Sans MS;" parent="Y3UnYj8FbFtQByEBO_pm-219" vertex="1">
                    <mxGeometry width="26" height="26" as="geometry"/>
                </mxCell>
                <mxCell id="Y3UnYj8FbFtQByEBO_pm-150" value="&lt;font color=&quot;#000000&quot;&gt;-0.&lt;/font&gt;&lt;font color=&quot;#000000&quot;&gt;3&lt;/font&gt;" style="whiteSpace=wrap;html=1;aspect=fixed;fillColor=#dae8fc;strokeColor=#6c8ebf;fontFamily=Comic Sans MS;" parent="Y3UnYj8FbFtQByEBO_pm-219" vertex="1">
                    <mxGeometry x="26.05009633911368" width="26" height="26" as="geometry"/>
                </mxCell>
                <mxCell id="Y3UnYj8FbFtQByEBO_pm-152" value="&lt;font color=&quot;#000000&quot;&gt;-0.&lt;/font&gt;&lt;font color=&quot;#000000&quot;&gt;8&lt;/font&gt;" style="whiteSpace=wrap;html=1;aspect=fixed;fillColor=#dae8fc;strokeColor=#6c8ebf;fontFamily=Comic Sans MS;" parent="Y3UnYj8FbFtQByEBO_pm-219" vertex="1">
                    <mxGeometry x="52.10019267822736" width="26" height="26" as="geometry"/>
                </mxCell>
                <mxCell id="Y3UnYj8FbFtQByEBO_pm-153" value="&lt;font color=&quot;#000000&quot;&gt;0.&lt;/font&gt;&lt;font color=&quot;#000000&quot;&gt;2&lt;/font&gt;" style="whiteSpace=wrap;html=1;aspect=fixed;fillColor=#dae8fc;strokeColor=#6c8ebf;fontFamily=Comic Sans MS;" parent="Y3UnYj8FbFtQByEBO_pm-219" vertex="1">
                    <mxGeometry x="78.15028901734104" width="26" height="26" as="geometry"/>
                </mxCell>
                <mxCell id="Y3UnYj8FbFtQByEBO_pm-154" value="&lt;font color=&quot;#000000&quot;&gt;-0.&lt;/font&gt;&lt;font color=&quot;#000000&quot;&gt;9&lt;/font&gt;" style="whiteSpace=wrap;html=1;aspect=fixed;fillColor=#dae8fc;strokeColor=#6c8ebf;fontFamily=Comic Sans MS;" parent="Y3UnYj8FbFtQByEBO_pm-219" vertex="1">
                    <mxGeometry x="104.20038535645472" width="26" height="26" as="geometry"/>
                </mxCell>
                <mxCell id="Y3UnYj8FbFtQByEBO_pm-155" value="&lt;font color=&quot;#000000&quot;&gt;0.&lt;/font&gt;&lt;font color=&quot;#000000&quot;&gt;3&lt;/font&gt;" style="whiteSpace=wrap;html=1;aspect=fixed;fillColor=#dae8fc;strokeColor=#6c8ebf;fontFamily=Comic Sans MS;" parent="Y3UnYj8FbFtQByEBO_pm-219" vertex="1">
                    <mxGeometry x="130.2504816955684" width="26" height="26" as="geometry"/>
                </mxCell>
                <mxCell id="Y3UnYj8FbFtQByEBO_pm-156" value="&lt;font color=&quot;#000000&quot;&gt;0.&lt;/font&gt;&lt;font color=&quot;#000000&quot;&gt;9&lt;/font&gt;" style="whiteSpace=wrap;html=1;aspect=fixed;fillColor=#dae8fc;strokeColor=#6c8ebf;fontFamily=Comic Sans MS;" parent="Y3UnYj8FbFtQByEBO_pm-219" vertex="1">
                    <mxGeometry x="156.30057803468208" width="26" height="26" as="geometry"/>
                </mxCell>
                <mxCell id="Y3UnYj8FbFtQByEBO_pm-157" value="&lt;font color=&quot;#000000&quot;&gt;0&lt;/font&gt;" style="whiteSpace=wrap;html=1;aspect=fixed;fillColor=#dae8fc;strokeColor=#6c8ebf;fontFamily=Comic Sans MS;" parent="Y3UnYj8FbFtQByEBO_pm-219" vertex="1">
                    <mxGeometry x="182.35067437379575" width="26" height="26" as="geometry"/>
                </mxCell>
                <mxCell id="Y3UnYj8FbFtQByEBO_pm-158" value="&lt;font color=&quot;#000000&quot;&gt;0.&lt;/font&gt;&lt;font color=&quot;#000000&quot;&gt;2&lt;/font&gt;" style="whiteSpace=wrap;html=1;aspect=fixed;fillColor=#dae8fc;strokeColor=#6c8ebf;fontFamily=Comic Sans MS;" parent="Y3UnYj8FbFtQByEBO_pm-219" vertex="1">
                    <mxGeometry x="208.40077071290943" width="26" height="26" as="geometry"/>
                </mxCell>
                <mxCell id="Y3UnYj8FbFtQByEBO_pm-159" value="&lt;font color=&quot;#000000&quot;&gt;0.7&lt;/font&gt;" style="whiteSpace=wrap;html=1;aspect=fixed;fillColor=#dae8fc;strokeColor=#6c8ebf;fontFamily=Comic Sans MS;" parent="Y3UnYj8FbFtQByEBO_pm-219" vertex="1">
                    <mxGeometry x="234.4508670520231" width="26" height="26" as="geometry"/>
                </mxCell>
                <mxCell id="Y3UnYj8FbFtQByEBO_pm-221" value="" style="group;fontFamily=Comic Sans MS;" parent="1" vertex="1" connectable="0">
                    <mxGeometry x="1193" y="465.25" width="260" height="26" as="geometry"/>
                </mxCell>
                <mxCell id="Y3UnYj8FbFtQByEBO_pm-183" value="&lt;font&gt;0.&lt;/font&gt;&lt;font&gt;6&lt;/font&gt;" style="whiteSpace=wrap;html=1;aspect=fixed;fillColor=#dae8fc;strokeColor=#6c8ebf;fontFamily=Comic Sans MS;fontColor=#000000;" parent="Y3UnYj8FbFtQByEBO_pm-221" vertex="1">
                    <mxGeometry width="26" height="26" as="geometry"/>
                </mxCell>
                <mxCell id="Y3UnYj8FbFtQByEBO_pm-184" value="&lt;font&gt;-0.&lt;/font&gt;&lt;font&gt;6&lt;/font&gt;" style="whiteSpace=wrap;html=1;aspect=fixed;fillColor=#dae8fc;strokeColor=#6c8ebf;fontFamily=Comic Sans MS;fontColor=#000000;" parent="Y3UnYj8FbFtQByEBO_pm-221" vertex="1">
                    <mxGeometry x="26" width="26" height="26" as="geometry"/>
                </mxCell>
                <mxCell id="Y3UnYj8FbFtQByEBO_pm-185" value="&lt;font&gt;-&lt;/font&gt;&lt;font&gt;0.&lt;/font&gt;&lt;font&gt;5&lt;/font&gt;" style="whiteSpace=wrap;html=1;aspect=fixed;fillColor=#dae8fc;strokeColor=#6c8ebf;fontFamily=Comic Sans MS;fontColor=#000000;" parent="Y3UnYj8FbFtQByEBO_pm-221" vertex="1">
                    <mxGeometry x="52" width="26" height="26" as="geometry"/>
                </mxCell>
                <mxCell id="Y3UnYj8FbFtQByEBO_pm-186" value="&lt;font&gt;5&lt;/font&gt;" style="whiteSpace=wrap;html=1;aspect=fixed;fillColor=#dae8fc;strokeColor=#6c8ebf;fontFamily=Comic Sans MS;fontColor=#000000;" parent="Y3UnYj8FbFtQByEBO_pm-221" vertex="1">
                    <mxGeometry x="78" width="26" height="26" as="geometry"/>
                </mxCell>
                <mxCell id="Y3UnYj8FbFtQByEBO_pm-187" value="&lt;font&gt;0&lt;/font&gt;" style="whiteSpace=wrap;html=1;aspect=fixed;fillColor=#dae8fc;strokeColor=#6c8ebf;fontFamily=Comic Sans MS;fontColor=#000000;" parent="Y3UnYj8FbFtQByEBO_pm-221" vertex="1">
                    <mxGeometry x="104" width="26" height="26" as="geometry"/>
                </mxCell>
                <mxCell id="Y3UnYj8FbFtQByEBO_pm-188" value="&lt;font&gt;1&lt;/font&gt;" style="whiteSpace=wrap;html=1;aspect=fixed;fillColor=#dae8fc;strokeColor=#6c8ebf;fontFamily=Comic Sans MS;fontColor=#000000;" parent="Y3UnYj8FbFtQByEBO_pm-221" vertex="1">
                    <mxGeometry x="130" width="26" height="26" as="geometry"/>
                </mxCell>
                <mxCell id="Y3UnYj8FbFtQByEBO_pm-189" value="&lt;font&gt;0.&lt;/font&gt;&lt;font&gt;1&lt;/font&gt;" style="whiteSpace=wrap;html=1;aspect=fixed;fillColor=#dae8fc;strokeColor=#6c8ebf;fontFamily=Comic Sans MS;fontColor=#000000;" parent="Y3UnYj8FbFtQByEBO_pm-221" vertex="1">
                    <mxGeometry x="156" width="26" height="26" as="geometry"/>
                </mxCell>
                <mxCell id="Y3UnYj8FbFtQByEBO_pm-190" value="&lt;font&gt;2&lt;/font&gt;" style="whiteSpace=wrap;html=1;aspect=fixed;fillColor=#dae8fc;strokeColor=#6c8ebf;fontFamily=Comic Sans MS;fontColor=#000000;" parent="Y3UnYj8FbFtQByEBO_pm-221" vertex="1">
                    <mxGeometry x="182" width="26" height="26" as="geometry"/>
                </mxCell>
                <mxCell id="Y3UnYj8FbFtQByEBO_pm-191" value="&lt;font&gt;0&lt;/font&gt;" style="whiteSpace=wrap;html=1;aspect=fixed;fillColor=#dae8fc;strokeColor=#6c8ebf;fontFamily=Comic Sans MS;fontColor=#000000;" parent="Y3UnYj8FbFtQByEBO_pm-221" vertex="1">
                    <mxGeometry x="208" width="26" height="26" as="geometry"/>
                </mxCell>
                <mxCell id="Y3UnYj8FbFtQByEBO_pm-192" value="&lt;font&gt;-0.&lt;/font&gt;&lt;font&gt;8&lt;/font&gt;" style="whiteSpace=wrap;html=1;aspect=fixed;fillColor=#dae8fc;strokeColor=#6c8ebf;fontFamily=Comic Sans MS;fontColor=#000000;" parent="Y3UnYj8FbFtQByEBO_pm-221" vertex="1">
                    <mxGeometry x="234" width="26" height="26" as="geometry"/>
                </mxCell>
                <mxCell id="Y3UnYj8FbFtQByEBO_pm-222" value="&lt;div&gt;&lt;font color=&quot;#000000&quot;&gt;7021Z&lt;/font&gt;&lt;/div&gt;&lt;div&gt;&lt;font color=&quot;#000000&quot;&gt;0.2%&lt;/font&gt;&lt;br&gt;&lt;/div&gt;" style="rounded=0;whiteSpace=wrap;html=1;fillColor=#e1d5e7;strokeColor=#9673a6;fontFamily=Comic Sans MS;" parent="1" vertex="1">
                    <mxGeometry x="1561" y="407" width="70" height="41" as="geometry"/>
                </mxCell>
                <mxCell id="Y3UnYj8FbFtQByEBO_pm-226" value="" style="endArrow=classic;html=1;rounded=0;" parent="1" edge="1">
                    <mxGeometry width="50" height="50" relative="1" as="geometry">
                        <mxPoint x="255" y="479" as="sourcePoint"/>
                        <mxPoint x="335" y="479" as="targetPoint"/>
                    </mxGeometry>
                </mxCell>
                <mxCell id="Y3UnYj8FbFtQByEBO_pm-229" value="" style="endArrow=classic;html=1;rounded=0;" parent="1" edge="1">
                    <mxGeometry width="50" height="50" relative="1" as="geometry">
                        <mxPoint x="681" y="309.93" as="sourcePoint"/>
                        <mxPoint x="761" y="309.93" as="targetPoint"/>
                    </mxGeometry>
                </mxCell>
                <mxCell id="Y3UnYj8FbFtQByEBO_pm-233" value="" style="endArrow=classic;html=1;rounded=0;" parent="1" edge="1">
                    <mxGeometry width="50" height="50" relative="1" as="geometry">
                        <mxPoint x="681" y="335.47" as="sourcePoint"/>
                        <mxPoint x="761" y="335.47" as="targetPoint"/>
                    </mxGeometry>
                </mxCell>
                <mxCell id="Y3UnYj8FbFtQByEBO_pm-234" value="" style="endArrow=classic;html=1;rounded=0;" parent="1" edge="1">
                    <mxGeometry width="50" height="50" relative="1" as="geometry">
                        <mxPoint x="681" y="365.47" as="sourcePoint"/>
                        <mxPoint x="761" y="365.47" as="targetPoint"/>
                    </mxGeometry>
                </mxCell>
                <mxCell id="Y3UnYj8FbFtQByEBO_pm-238" value="" style="endArrow=classic;html=1;rounded=0;" parent="1" edge="1">
                    <mxGeometry width="50" height="50" relative="1" as="geometry">
                        <mxPoint x="681" y="564.47" as="sourcePoint"/>
                        <mxPoint x="761" y="564.47" as="targetPoint"/>
                    </mxGeometry>
                </mxCell>
                <mxCell id="Y3UnYj8FbFtQByEBO_pm-239" value="" style="endArrow=classic;html=1;rounded=0;" parent="1" edge="1">
                    <mxGeometry width="50" height="50" relative="1" as="geometry">
                        <mxPoint x="681" y="594.47" as="sourcePoint"/>
                        <mxPoint x="761" y="594.47" as="targetPoint"/>
                    </mxGeometry>
                </mxCell>
                <mxCell id="Y3UnYj8FbFtQByEBO_pm-240" value="" style="endArrow=classic;html=1;rounded=0;" parent="1" edge="1">
                    <mxGeometry width="50" height="50" relative="1" as="geometry">
                        <mxPoint x="681" y="624.47" as="sourcePoint"/>
                        <mxPoint x="761" y="624.47" as="targetPoint"/>
                    </mxGeometry>
                </mxCell>
                <mxCell id="Y3UnYj8FbFtQByEBO_pm-241" value="" style="endArrow=classic;html=1;rounded=0;" parent="1" edge="1">
                    <mxGeometry width="50" height="50" relative="1" as="geometry">
                        <mxPoint x="681" y="654.47" as="sourcePoint"/>
                        <mxPoint x="761" y="654.47" as="targetPoint"/>
                    </mxGeometry>
                </mxCell>
                <mxCell id="Y3UnYj8FbFtQByEBO_pm-253" value=". . ." style="rounded=0;whiteSpace=wrap;html=1;fontSize=18;fontStyle=1;gradientColor=none;fillColor=none;align=center;verticalAlign=bottom;fontFamily=Comic Sans MS;strokeColor=none;direction=south;" parent="1" vertex="1">
                    <mxGeometry x="573.5" y="377" width="10" height="50" as="geometry"/>
                </mxCell>
                <mxCell id="Y3UnYj8FbFtQByEBO_pm-254" value=". . ." style="rounded=0;whiteSpace=wrap;html=1;fontSize=18;fontStyle=1;gradientColor=none;fillColor=none;align=center;verticalAlign=bottom;fontFamily=Comic Sans MS;strokeColor=none;direction=south;" parent="1" vertex="1">
                    <mxGeometry x="573.5" y="506.75" width="10" height="50" as="geometry"/>
                </mxCell>
                <mxCell id="Y3UnYj8FbFtQByEBO_pm-255" value=". . ." style="rounded=0;whiteSpace=wrap;html=1;fontSize=14;fontStyle=1;gradientColor=none;fillColor=none;align=center;verticalAlign=bottom;fontFamily=Comic Sans MS;strokeColor=none;direction=south;" parent="1" vertex="1">
                    <mxGeometry x="929.75" y="517.5" width="10" height="34.5" as="geometry"/>
                </mxCell>
                <mxCell id="Y3UnYj8FbFtQByEBO_pm-271" value="" style="group;fontFamily=Comic Sans MS;fontColor=#000000;" parent="1" vertex="1" connectable="0">
                    <mxGeometry x="541" y="350" width="80" height="20" as="geometry"/>
                </mxCell>
                <mxCell id="Y3UnYj8FbFtQByEBO_pm-272" value="S" style="whiteSpace=wrap;html=1;aspect=fixed;fillColor=#d5e8d4;strokeColor=#82b366;fontFamily=Comic Sans MS;fontColor=#000000;" parent="Y3UnYj8FbFtQByEBO_pm-271" vertex="1">
                    <mxGeometry width="20" height="20" as="geometry"/>
                </mxCell>
                <mxCell id="Y3UnYj8FbFtQByEBO_pm-273" value="I" style="whiteSpace=wrap;html=1;aspect=fixed;fillColor=#d5e8d4;strokeColor=#82b366;fontFamily=Comic Sans MS;fontColor=#000000;" parent="Y3UnYj8FbFtQByEBO_pm-271" vertex="1">
                    <mxGeometry x="20" width="20" height="20" as="geometry"/>
                </mxCell>
                <mxCell id="Y3UnYj8FbFtQByEBO_pm-274" value="N" style="whiteSpace=wrap;html=1;aspect=fixed;fillColor=#d5e8d4;strokeColor=#82b366;fontFamily=Comic Sans MS;fontColor=#000000;" parent="Y3UnYj8FbFtQByEBO_pm-271" vertex="1">
                    <mxGeometry x="40" width="20" height="20" as="geometry"/>
                </mxCell>
                <mxCell id="Y3UnYj8FbFtQByEBO_pm-275" value="E" style="whiteSpace=wrap;html=1;aspect=fixed;fillColor=#d5e8d4;strokeColor=#82b366;fontFamily=Comic Sans MS;fontColor=#000000;" parent="Y3UnYj8FbFtQByEBO_pm-271" vertex="1">
                    <mxGeometry x="60" width="20" height="20" as="geometry"/>
                </mxCell>
                <mxCell id="Y3UnYj8FbFtQByEBO_pm-277" value=". . ." style="rounded=0;whiteSpace=wrap;html=1;fontSize=14;fontStyle=1;gradientColor=none;fillColor=none;align=center;verticalAlign=bottom;fontFamily=Comic Sans MS;strokeColor=none;direction=south;" parent="1" vertex="1">
                    <mxGeometry x="928.75" y="387.75" width="10" height="34.5" as="geometry"/>
                </mxCell>
                <mxCell id="Y3UnYj8FbFtQByEBO_pm-278" value=". . ." style="rounded=0;whiteSpace=wrap;html=1;fontSize=14;fontStyle=1;gradientColor=none;fillColor=none;align=center;verticalAlign=bottom;fontFamily=Comic Sans MS;strokeColor=none;direction=south;" parent="1" vertex="1">
                    <mxGeometry x="713.0799999999999" y="387.75" width="10" height="34.5" as="geometry"/>
                </mxCell>
                <mxCell id="Y3UnYj8FbFtQByEBO_pm-284" value=". . ." style="rounded=0;whiteSpace=wrap;html=1;fontSize=14;fontStyle=1;gradientColor=none;fillColor=none;align=center;verticalAlign=bottom;fontFamily=Comic Sans MS;strokeColor=none;direction=south;" parent="1" vertex="1">
                    <mxGeometry x="713.0799999999999" y="515.5" width="10" height="34.5" as="geometry"/>
                </mxCell>
                <mxCell id="Y3UnYj8FbFtQByEBO_pm-285" value="" style="endArrow=classic;html=1;rounded=0;" parent="1" edge="1">
                    <mxGeometry width="50" height="50" relative="1" as="geometry">
                        <mxPoint x="1101.75" y="478.46000000000004" as="sourcePoint"/>
                        <mxPoint x="1181.75" y="478.46000000000004" as="targetPoint"/>
                    </mxGeometry>
                </mxCell>
                <mxCell id="Y3UnYj8FbFtQByEBO_pm-286" value="Averaging" style="text;html=1;align=center;verticalAlign=middle;resizable=0;points=[];autosize=1;strokeColor=none;fillColor=none;fontColor=#000000;fontStyle=1;fontSize=17;fontFamily=Comic Sans MS;" parent="1" vertex="1">
                    <mxGeometry x="1091.75" y="445" width="100" height="30" as="geometry"/>
                </mxCell>
                <mxCell id="Y3UnYj8FbFtQByEBO_pm-287" value="" style="endArrow=classic;html=1;rounded=0;" parent="1" edge="1">
                    <mxGeometry width="50" height="50" relative="1" as="geometry">
                        <mxPoint x="1461" y="477.72" as="sourcePoint"/>
                        <mxPoint x="1541" y="477.72" as="targetPoint"/>
                    </mxGeometry>
                </mxCell>
                <mxCell id="Y3UnYj8FbFtQByEBO_pm-288" value="Softmax" style="text;html=1;align=center;verticalAlign=middle;resizable=0;points=[];autosize=1;strokeColor=none;fillColor=none;fontColor=#000000;fontStyle=1;fontSize=17;fontFamily=Comic Sans MS;" parent="1" vertex="1">
                    <mxGeometry x="1453" y="445" width="90" height="30" as="geometry"/>
                </mxCell>
                <mxCell id="Y3UnYj8FbFtQByEBO_pm-289" value="&lt;font color=&quot;#000000&quot;&gt;7022Z&lt;/font&gt;&lt;div&gt;&lt;font color=&quot;#000000&quot;&gt;99%&lt;/font&gt;&lt;br&gt;&lt;/div&gt;" style="rounded=0;whiteSpace=wrap;html=1;fillColor=#e1d5e7;strokeColor=#9673a6;fontFamily=Comic Sans MS;" parent="1" vertex="1">
                    <mxGeometry x="1561" y="320" width="70" height="41" as="geometry"/>
                </mxCell>
                <mxCell id="Y3UnYj8FbFtQByEBO_pm-290" value=". . ." style="rounded=0;whiteSpace=wrap;html=1;fontSize=11;fontStyle=1;gradientColor=none;fillColor=none;align=center;verticalAlign=bottom;fontFamily=Comic Sans MS;strokeColor=none;direction=south;" parent="1" vertex="1">
                    <mxGeometry x="1591" y="284.5" width="10" height="34.5" as="geometry"/>
                </mxCell>
                <mxCell id="Y3UnYj8FbFtQByEBO_pm-291" value=". . ." style="rounded=0;whiteSpace=wrap;html=1;fontSize=11;fontStyle=1;gradientColor=none;fillColor=none;align=center;verticalAlign=bottom;fontFamily=Comic Sans MS;strokeColor=none;direction=south;" parent="1" vertex="1">
                    <mxGeometry x="1591" y="367" width="10" height="34.5" as="geometry"/>
                </mxCell>
                <mxCell id="Y3UnYj8FbFtQByEBO_pm-292" value=". . ." style="rounded=0;whiteSpace=wrap;html=1;fontSize=11;fontStyle=1;gradientColor=none;fillColor=none;align=center;verticalAlign=bottom;fontFamily=Comic Sans MS;strokeColor=none;direction=south;" parent="1" vertex="1">
                    <mxGeometry x="1591" y="457.92" width="10" height="34.5" as="geometry"/>
                </mxCell>
                <mxCell id="Y3UnYj8FbFtQByEBO_pm-294" value="&lt;div&gt;&lt;font color=&quot;#000000&quot;&gt;8299Z&lt;/font&gt;&lt;/div&gt;&lt;div&gt;&lt;font color=&quot;#000000&quot;&gt;0.1%&lt;/font&gt;&lt;br&gt;&lt;/div&gt;" style="rounded=0;whiteSpace=wrap;html=1;fillColor=#e1d5e7;strokeColor=#9673a6;fontFamily=Comic Sans MS;" parent="1" vertex="1">
                    <mxGeometry x="1561" y="500" width="70" height="41" as="geometry"/>
                </mxCell>
                <mxCell id="Y3UnYj8FbFtQByEBO_pm-295" value=". . ." style="rounded=0;whiteSpace=wrap;html=1;fontSize=11;fontStyle=1;gradientColor=none;fillColor=none;align=center;verticalAlign=bottom;fontFamily=Comic Sans MS;strokeColor=none;direction=south;" parent="1" vertex="1">
                    <mxGeometry x="1591" y="549" width="10" height="34.5" as="geometry"/>
                </mxCell>
                <mxCell id="Y3UnYj8FbFtQByEBO_pm-296" value="&lt;div&gt;4690Z&lt;/div&gt;&lt;div&gt;&lt;font color=&quot;#000000&quot;&gt;0.05%&lt;/font&gt;&lt;br&gt;&lt;/div&gt;" style="rounded=0;whiteSpace=wrap;html=1;fillColor=#e1d5e7;strokeColor=#9673a6;fontFamily=Comic Sans MS;" parent="1" vertex="1">
                    <mxGeometry x="1561" y="588.5" width="70" height="41.5" as="geometry"/>
                </mxCell>
                <mxCell id="Y3UnYj8FbFtQByEBO_pm-297" value=". . ." style="rounded=0;whiteSpace=wrap;html=1;fontSize=14;fontStyle=1;gradientColor=none;fillColor=none;align=center;verticalAlign=bottom;fontFamily=Comic Sans MS;strokeColor=none;direction=south;" parent="1" vertex="1">
                    <mxGeometry x="1591" y="643" width="10" height="34.5" as="geometry"/>
                </mxCell>
                <mxCell id="Y3UnYj8FbFtQByEBO_pm-299" value="OVA" style="text;html=1;align=center;verticalAlign=middle;resizable=0;points=[];autosize=1;strokeColor=none;fillColor=none;fontColor=#000000;fontStyle=1;fontSize=17;fontFamily=Comic Sans MS;" parent="1" vertex="1">
                    <mxGeometry x="1468" y="480" width="60" height="30" as="geometry"/>
                </mxCell>
            </root>
        </mxGraphModel>
    </diagram>
</mxfile>